<svg version="1" xmlns="http://www.w3.org/2000/svg" width="160" height="160" viewBox="0 0 120 120"><path d="M33 2.4c.4 1.1 4.2 10.2 8.4 20.1 4.2 9.9 10 23.5 12.8 30.2C58.7 63.5 61 67.2 61 64.1c0-.5 1.3-3.8 2.9-7.3 1.6-3.5 3.8-8.4 5-11.1 1.2-2.6 3.1-6.8 4.2-9.5 1.2-2.6 3.3-7.2 4.6-10.2 1.4-3 3.1-6.9 3.8-8.6C86.4 6.6 89 .8 89 .5 89 .4 76.2.3 60.6.2H32.1l.9 2.2z"/><path d="M8.5 17.1c-.4.5 14 29.5 41.8 84.4 3.9 7.7 7 14.3 6.9 14.7-.1.3.5 1.1 1.3 1.8 1.1.9 1.8.4 3.3-2.7 1.1-2.1 2.1-4.3 2.2-4.8.1-.6.6-1.5 1.1-2.1 1-1.2 4-6.9 21.4-40.9 7.1-13.8 15.9-30.7 19.6-37.8 3.7-7 6.4-12.8 6-12.8-.3-.1-6.2-.2-13-.3-11.2-.1-12.6 0-14.3 1.8-1 1.1-1.8 2.6-1.8 3.3 0 .7-.4 2.1-1 3.1-1.4 2.5-9 19.2-9 19.7 0 .2-1.8 4.3-4 9s-4 8.8-4 8.9c0 .2-1.2 2.9-2.6 6.1l-2.6 5.7-1.4-2.8c-.7-1.6-3.1-7.4-5.4-12.9-2.3-5.5-4.7-11.4-5.5-13-.7-1.7-3.3-7.7-5.8-13.5s-5-11.6-5.6-13c-1.2-2.5-1.3-2.5-14.2-2.5-7.2 0-13.2.2-13.4.6z"/></svg>